<svg width="197" height="76" viewBox="0 0 197 76" fill="none" xmlns="http://www.w3.org/2000/svg">
<path d="M169.863 54.8926C168.633 55.5781 167.539 56.2636 166.445 56.9491C165.557 56.1265 164.258 55.2353 162.481 54.4127C161.387 53.9328 160.225 53.5215 158.995 53.1788V52.7675C161.25 52.7675 163.301 53.0417 164.941 53.3844C166.992 53.7957 168.701 54.3441 169.931 54.8926H169.863Z" fill="#CCCCCC"/>
<path d="M165.352 57.7102C163.984 58.6699 162.686 59.6296 161.592 60.4522C160.498 58.6699 159.678 56.7505 159.268 54.6254C160.225 54.8996 161.114 55.2423 161.865 55.5165C163.438 56.2021 164.6 56.9561 165.352 57.6416V57.7102Z" fill="#48AE4D"/>
<path d="M51.1982 31.1053H42.8588C41.9702 31.1053 41.4917 30.6254 41.4917 29.7343V5.87835C41.4917 4.98718 41.9702 4.50732 42.8588 4.50732H51.1982C55.5729 4.50732 58.854 5.60415 60.973 7.66069C63.092 9.78579 64.1857 13.1448 64.1857 17.7378C64.1857 22.3307 63.092 25.6897 60.973 27.8148C58.854 29.9399 55.5729 30.9682 51.1982 30.9682V31.1053ZM50.8564 11.6435H49.6943V24.1199H50.8564C52.702 24.1199 54.0007 23.7086 54.7526 22.8174C55.5729 21.9263 55.983 20.281 55.983 17.9503C55.983 15.6195 55.5729 13.9743 54.7526 13.0831C53.9324 12.1919 52.6336 11.7806 50.8564 11.7806V11.6435Z" fill="#CCCCCC"/>
<path d="M75.3277 5.8098V7.7978C75.3277 8.62041 74.9175 9.10027 74.0289 9.10027H68.6288C67.8086 9.10027 67.3301 8.68896 67.3301 7.7978V5.8098C67.3301 4.98718 67.7402 4.50732 68.6288 4.50732H74.0289C74.8492 4.50732 75.3277 4.91863 75.3277 5.8098ZM75.2593 12.1165V29.8028C75.2593 30.6254 74.8492 31.1053 73.9605 31.1053H68.6972C67.8769 31.1053 67.3984 30.694 67.3984 29.8028V12.1165C67.3984 11.2939 67.8086 10.8141 68.6972 10.8141H73.9605C74.7808 10.8141 75.2593 11.2254 75.2593 12.1165Z" fill="#CCCCCC"/>
<path d="M97.9532 17.6006V29.8028C97.9532 30.6254 97.5431 31.1053 96.6545 31.1053H92.3481C91.6645 31.1053 91.1861 30.7625 91.0493 30.1455L90.7076 29.0487C89.4088 30.6254 87.3582 31.3795 84.4872 31.3795C81.6163 31.3795 81.1378 30.8996 79.9758 29.8713C78.8137 28.8431 78.1985 27.3349 78.1985 25.2784C78.1985 23.2218 78.3353 23.496 78.5403 22.742C78.8137 21.9879 79.1555 21.4395 79.7024 20.9596C80.2492 20.4798 80.7961 20.0685 81.4796 19.7943C82.0948 19.4515 82.9151 19.2459 83.9404 19.0402C84.8974 18.8345 85.9227 18.766 86.8797 18.6974C87.8366 18.6974 88.9987 18.5603 90.3658 18.5603V18.0119C90.3658 16.7094 89.2721 16.0925 87.1531 16.0925C85.0341 16.0925 83.9404 16.4352 82.0948 17.0522C81.2745 17.3264 80.7277 17.0522 80.4543 16.2981L79.5657 13.5561C79.2922 12.802 79.5657 12.2536 80.3176 11.9108C82.7784 10.8826 85.4442 10.4027 88.3835 10.4027C91.3228 10.4027 93.8519 11.0197 95.4924 12.2536C97.133 13.4875 97.8849 15.2699 97.8849 17.6006H97.9532ZM90.4341 23.8457V22.3375C88.6569 22.3375 87.4265 22.5432 86.6746 22.8859C85.9227 23.2287 85.5809 23.8457 85.5809 24.7368C85.5809 25.628 85.786 25.8336 86.1278 26.1764C86.4695 26.5192 87.0164 26.6563 87.6316 26.6563C89.4772 26.6563 90.3658 25.7651 90.3658 23.9142L90.4341 23.8457Z" fill="#CCCCCC"/>
<path d="M125.295 30.1456L125.022 29.0488C124.475 29.8028 123.655 30.3512 122.561 30.8311C121.467 31.311 120.374 31.5166 119.348 31.5166C116.751 31.5166 114.769 30.6254 113.47 28.8431C112.103 27.0608 111.419 24.4558 111.419 20.8911C111.419 17.3265 112.103 14.7215 113.47 12.9392C114.837 11.1568 116.751 10.2656 119.348 10.2656C121.946 10.2656 121.331 10.4713 122.424 10.8826C123.45 11.2939 124.202 11.8423 124.68 12.5278V5.8098C124.68 4.98718 125.09 4.50732 125.979 4.50732H131.242C132.062 4.50732 132.541 4.91863 132.541 5.8098V29.8028C132.541 30.6254 132.131 31.1053 131.242 31.1053H126.662C125.979 31.1053 125.5 30.7625 125.364 30.1456H125.295ZM124.065 24.5312C124.543 23.7771 124.748 22.6118 124.748 20.9665C124.748 19.3213 124.543 18.1559 124.065 17.4019C123.586 16.6478 122.903 16.305 122.014 16.305C121.126 16.305 120.442 16.6478 119.964 17.4019C119.553 18.0874 119.28 19.3213 119.28 20.9665C119.28 22.6118 119.485 23.8457 119.964 24.5312C120.374 25.2167 121.057 25.628 122.014 25.628C122.971 25.628 123.655 25.2853 124.065 24.5312Z" fill="#CCCCCC"/>
<path d="M147.647 26.3067C149.288 26.3067 150.929 25.9639 152.569 25.2098C153.389 24.8671 153.936 25.2098 154.21 25.9639L154.961 28.2946C155.167 28.9802 154.961 29.5286 154.21 29.9399C152.091 31.0367 149.698 31.5851 146.964 31.5851C144.23 31.5851 140.47 30.6939 138.488 28.8431C136.506 27.0607 135.549 24.3872 135.549 20.9596C135.549 17.5321 136.506 14.9957 138.351 13.1448C140.197 11.2939 142.726 10.4027 145.939 10.4027C149.151 10.4027 151.407 11.2939 153.184 13.0762C154.893 14.8586 155.782 17.3264 155.782 20.3427V22.125C155.782 22.9476 155.372 23.4275 154.483 23.4275H143.204C143.751 25.3469 145.255 26.3067 147.784 26.3067H147.647ZM146.007 15.6812C145.05 15.6812 144.298 15.9554 143.751 16.5723C143.204 17.1893 142.931 18.149 142.794 19.4515H148.81V19.1773C148.81 16.8465 147.853 15.6812 145.939 15.6812H146.007Z" fill="#CCCCCC"/>
<path d="M24.5396 57.093C26.7269 57.093 28.8459 56.6817 30.965 55.7906C31.8536 55.4478 32.5371 55.3107 33.0156 55.5164C33.4941 55.6535 33.9042 56.1333 34.246 56.8188L36.9802 62.7143C37.2536 63.4683 37.322 64.0853 37.1853 64.4966C37.0486 64.9079 36.5701 65.3192 35.8182 65.7991C32.3321 68.1298 27.7523 69.2952 22.1471 69.2952C16.542 69.2952 9.77481 67.3758 5.87856 63.4683C1.9823 59.5609 0 53.5969 0 45.4393C0 37.2817 1.91395 31.2491 5.74185 27.4102C9.56974 23.5714 14.9015 21.5834 21.8053 21.5834C28.7092 21.5834 31.7852 22.7487 35.2713 25.0109C36.0233 25.4908 36.4334 25.9021 36.6384 26.382C36.7752 26.7933 36.7752 27.4103 36.4334 28.1643L33.7675 33.9912C33.4941 34.7453 33.084 35.1566 32.5371 35.3622C31.9903 35.4993 31.3067 35.3622 30.4865 35.088C28.5725 34.334 26.5219 33.9226 24.2661 33.9226C20.7117 33.9226 18.1825 34.8138 16.6787 36.5276C15.1749 38.2414 14.423 41.2576 14.423 45.5078C14.423 49.758 15.1749 52.7057 16.7471 54.4881C18.3192 56.2704 20.8484 57.093 24.4712 57.093H24.5396Z" fill="#21543A"/>
<path d="M71.2263 45.0966V66.3476C71.2263 67.8557 70.4744 68.5412 69.0389 68.5412H61.5198C60.2894 68.5412 59.5375 67.9928 59.2641 66.8274L58.6489 64.908C56.3932 67.65 52.7704 69.0211 47.8488 69.0211C42.9272 69.0211 42.0386 68.1299 39.9879 66.3476C37.9373 64.5652 36.9119 61.8917 36.9119 58.3956C36.9119 54.8995 37.117 55.3108 37.5955 54.0083C38.0056 52.7744 38.6892 51.6775 39.6461 50.8549C40.6031 50.0323 41.5601 49.3468 42.7221 48.7984C43.8842 48.25 45.2513 47.8387 46.9602 47.5645C48.669 47.2903 50.3779 47.0846 52.0868 46.9475C53.7957 46.8104 55.778 46.7418 58.1704 46.7418V45.7821C58.1704 43.5885 56.3248 42.4916 52.5653 42.4916C48.8058 42.4916 47.0285 43.0401 43.8158 44.2054C42.4487 44.7539 41.4917 44.2054 41.0132 42.8344L39.4411 38.0358C39.0309 36.7333 39.4411 35.7736 40.8082 35.2252C45.1146 33.5114 49.7627 32.6202 54.7527 32.6202C59.7426 32.6202 64.2541 33.6485 67.0566 35.8422C69.8592 37.9673 71.2263 41.0521 71.2263 45.1652V45.0966Z" fill="#21543A"/>
<path d="M105.746 48.7229V66.3407C105.746 67.8488 104.994 68.5343 103.558 68.5343H94.7404C93.305 68.5343 92.5531 67.7802 92.5531 66.3407V48.4487C92.5531 46.7349 92.348 45.501 91.9379 44.7469C91.5277 43.9929 90.7075 43.5816 89.6138 43.5816C88.5201 43.5816 87.3581 44.0614 86.6745 45.0211C85.991 45.9809 85.7175 47.2148 85.7175 48.7915V66.4092C85.7175 67.9173 84.9656 68.6029 83.5302 68.6029H74.5756C73.0718 68.6029 72.3882 67.8488 72.3882 66.4092V35.6296C72.3882 34.1215 73.1402 33.436 74.5756 33.436H82.6415C83.8719 33.436 84.6238 33.9844 84.8973 35.1497L85.6492 37.4119C88.1783 34.2586 91.5277 32.6819 95.6291 32.6819C99.7304 32.6819 103.285 34.3271 104.925 37.6861C107.523 34.3271 111.146 32.6819 115.726 32.6819C120.305 32.6819 122.083 33.7787 123.723 35.9724C125.364 38.166 126.184 41.4565 126.184 45.9123V66.4092C126.184 67.9173 125.432 68.6029 123.997 68.6029H115.042C113.607 68.6029 112.855 67.8488 112.855 66.4092V48.5173C112.855 45.2268 111.829 43.6501 109.71 43.6501C107.591 43.6501 105.951 45.3639 105.951 48.86L105.746 48.7229Z" fill="#21543A"/>
<path d="M139.376 35.0814L139.923 37.0008C140.812 35.7669 142.247 34.6701 144.161 33.8475C146.075 33.0248 147.921 32.6135 149.698 32.6135C154.21 32.6135 157.627 34.1217 159.951 37.2065C162.275 40.2913 163.438 44.8842 163.438 50.9853C163.438 57.0864 162.275 61.6794 159.951 64.7642C157.627 67.849 154.21 69.3571 149.698 69.3571C145.187 69.3571 146.212 69.0144 144.366 68.3288C142.589 67.6433 141.222 66.6836 140.402 65.4497V73.5388C140.402 75.0469 139.65 75.7324 138.214 75.7324H129.123C127.688 75.7324 126.936 74.9783 126.936 73.5388V35.6298C126.936 34.1217 127.688 33.4361 129.123 33.4361H137.052C138.283 33.4361 139.035 33.9846 139.308 35.1499L139.376 35.0814Z" fill="#21543A"/>
<path d="M141.564 44.7538C140.812 45.9877 140.402 48.0443 140.402 50.9234C140.402 53.8026 140.812 55.8591 141.564 57.0931C142.316 58.327 143.546 59.0125 145.118 59.0125C146.69 59.0125 147.921 58.3955 148.673 57.1616C149.425 55.9277 149.835 53.8711 149.835 50.9234C149.835 47.9757 149.425 45.9192 148.673 44.6852C147.921 43.4513 146.759 42.8344 145.118 42.8344C143.478 42.8344 142.316 43.4513 141.564 44.7538Z" fill="#CCCCCC"/>
<g opacity="0.3">
<mask id="mask0_36_763" style="mask-type:luminance" maskUnits="userSpaceOnUse" x="0" y="21" width="164" height="55">
<path d="M24.5396 57.0932C26.7269 57.0932 28.8459 56.6819 30.965 55.7907C31.8536 55.448 32.5371 55.3109 33.0156 55.5165C33.4941 55.6536 33.9042 56.1335 34.246 56.8876L36.9802 62.7144C37.2537 63.4685 37.322 64.0855 37.1853 64.4968C37.0486 64.9081 36.5701 65.3194 35.8182 65.8678C32.3321 68.1986 27.7523 69.3639 22.1471 69.3639C16.542 69.3639 9.77481 67.4445 5.87856 63.5371C1.9823 59.6296 0 53.6656 0 45.508C0 37.3504 1.91395 31.3179 5.74185 27.479C9.56975 23.6401 14.9015 21.6521 21.8053 21.6521C28.7092 21.6521 31.7852 22.8175 35.2713 25.0797C36.0233 25.5595 36.4334 26.0394 36.6385 26.4507C36.7752 26.862 36.7752 27.479 36.4334 28.233L33.7675 34.0599C33.4941 34.814 33.084 35.2253 32.5371 35.4309C31.9903 35.5681 31.3067 35.4309 30.4865 35.1567C28.5725 34.4027 26.5219 33.9914 24.2661 33.9914C20.7117 33.9914 18.1825 34.8825 16.6787 36.5963C15.1749 38.3101 14.423 41.3264 14.423 45.5766C14.423 49.8268 15.1749 52.7745 16.7471 54.5568C18.3192 56.3391 20.8484 57.2303 24.4712 57.2303V57.0932H24.5396ZM71.2262 45.0967V66.3477C71.2262 67.7872 70.4743 68.5413 69.0389 68.5413H61.5198C60.2894 68.5413 59.5375 67.9929 59.2641 66.8275L58.6489 64.9081C56.3931 67.6501 52.7703 69.0212 47.8487 69.0212C42.9271 69.0212 42.0385 68.13 39.9879 66.3477C37.9372 64.5653 36.9119 61.8918 36.9119 58.3957C36.9119 54.8996 37.1169 55.3109 37.5954 54.0084C38.0056 52.7745 38.6891 51.6776 39.6461 50.855C40.6031 50.0324 41.56 49.3469 42.7221 48.7985C43.8841 48.2501 45.2512 47.8388 46.9601 47.496C48.669 47.2218 50.3779 47.0161 52.0868 46.879C53.7956 46.7419 55.7779 46.6734 58.1704 46.6734V45.7137C58.1704 43.52 56.3248 42.3546 52.5652 42.3546C48.8057 42.3546 47.0285 42.9031 43.8158 44.0684C42.4487 44.6168 41.4917 44.0684 41.0132 42.6974L39.441 37.8988C39.0309 36.5963 39.441 35.6366 40.8081 35.0882C45.1145 33.3744 49.7627 32.4832 54.7526 32.4832C59.7426 32.4832 64.254 33.5115 67.0566 35.7052C69.8591 37.8302 71.2262 40.9151 71.2262 45.0282V45.0967ZM105.746 48.7299V66.3477C105.746 67.7872 104.994 68.5413 103.558 68.5413H94.7405C93.305 68.5413 92.5531 67.7872 92.5531 66.3477V48.4557C92.5531 46.7419 92.348 45.508 91.9379 44.7539C91.5278 43.9999 90.7075 43.5886 89.6138 43.5886C88.5201 43.5886 87.3581 44.0684 86.6746 45.0282C86.0593 45.9879 85.7176 47.2218 85.7176 48.7985V66.4162C85.7176 67.9243 84.9657 68.6099 83.5302 68.6099H74.5757C73.0718 68.6099 72.3883 67.8558 72.3883 66.4162V35.6366C72.3883 34.1285 73.1402 33.443 74.5757 33.443H82.6416C83.872 33.443 84.6239 33.9914 84.8973 35.1567L85.6492 37.4189C88.1784 34.2656 91.5278 32.6889 95.6291 32.6889C99.7304 32.6889 103.285 34.3341 104.925 37.6931C107.523 34.3341 111.146 32.6889 115.726 32.6889C120.305 32.6889 122.083 33.7857 123.723 35.9794C125.364 38.173 126.184 41.4635 126.184 45.9193V66.4162C126.184 67.9243 125.432 68.6099 123.997 68.6099H115.042C113.607 68.6099 112.855 67.8558 112.855 66.4162V48.5243C112.855 45.2338 111.829 43.6571 109.71 43.6571C107.591 43.6571 105.951 45.3709 105.951 48.867L105.746 48.7299ZM139.377 35.0813L139.923 37.0008C140.812 35.7669 142.247 34.67 144.161 33.8474C146.075 33.0248 147.921 32.6135 149.698 32.6135C154.21 32.6135 157.627 34.1216 159.951 37.2064C162.276 40.2912 163.438 44.8842 163.438 50.9853C163.438 57.0864 162.276 61.6793 159.951 64.7641C157.627 67.8489 154.21 69.3571 149.698 69.3571C145.187 69.3571 146.212 69.0143 144.366 68.3288C142.521 67.6433 141.222 66.6836 140.402 65.4496V73.5387C140.402 75.0468 139.65 75.7324 138.214 75.7324H129.123C127.688 75.7324 126.936 74.9783 126.936 73.5387V35.6297C126.936 34.1902 127.688 33.4361 129.123 33.4361H137.052C138.283 33.4361 139.035 33.9845 139.308 35.1499L139.377 35.0813ZM141.564 44.7539C140.812 45.9879 140.402 48.113 140.402 50.9236C140.402 53.7342 140.812 55.8593 141.564 57.0932C142.316 58.3271 143.546 59.0127 145.118 59.0127C146.691 59.0127 147.921 58.3957 148.673 57.1618C149.425 55.9278 149.835 53.8713 149.835 50.9236C149.835 47.9759 149.425 45.9193 148.673 44.6854C147.921 43.4515 146.759 42.8345 145.118 42.8345C143.478 42.8345 142.316 43.4515 141.564 44.7539Z" fill="white"/>
</mask>
<g mask="url(#mask0_36_763)">
<path d="M165.146 50.3683C160.43 82.9988 134.318 110.899 97.543 118.166C92.348 118.988 87.0846 119.331 81.6846 119.194C85.6492 109.185 92.2113 94.9953 101.918 81.3536C114.769 63.3245 129.397 51.0538 145.734 44.7471C149.151 43.4446 152.569 42.3478 156.124 41.5252C159.336 40.7711 162.686 40.2912 166.035 39.9485C166.035 41.5252 166.035 43.0333 165.898 44.61C165.762 46.5294 165.557 48.4489 165.283 50.2998H165.146V50.3683Z" fill="#117C3E"/>
<path d="M165.693 34.471C158.516 35.088 151.612 36.6647 144.913 39.1325C141.701 40.2979 138.556 41.6689 135.48 43.2456C134.592 43.7255 133.635 44.2053 132.746 44.7538C119.485 52.1573 107.386 63.5369 96.7911 78.4811C86.196 93.4253 79.2921 108.712 75.3959 118.995H75.2592C55.5045 117.213 37.8688 109.261 24.3345 97.3327C34.7245 88.2839 54.069 72.7228 79.0871 58.5326C88.7252 53.0485 99.7304 47.5644 111.829 42.6287C116.683 40.6407 121.672 38.7898 126.867 37.076C138.898 33.1 151.68 29.9466 165.01 28.1643C165.351 30.2894 165.557 32.4145 165.762 34.5396H165.693V34.471Z" fill="#3AA34B"/>
<path d="M45.5246 53.1104C39.7827 55.5097 34.3143 57.9775 29.1193 60.5825C25.3597 56.8121 19.823 52.3563 11.8937 48.1061C7.17722 45.5697 2.05057 43.376 -3.48621 41.4566C-3.48621 40.8396 -3.48621 40.2227 -3.55457 39.6057C6.83544 40.5654 15.9267 42.4849 23.3091 44.61C32.4687 47.2149 39.9878 50.3683 45.5246 53.0418V53.1104Z" fill="#CCCCCC"/>
<path d="M23.7192 63.3244C17.0204 66.8206 10.8684 70.3167 5.53673 73.6072C1.2987 65.5866 -1.57222 56.812 -2.87097 47.6947C1.50377 49.3399 5.26331 50.9852 8.47601 52.699C15.3115 56.2636 20.2331 60.1025 23.7192 63.3244Z" fill="#48AE4D"/>
<path d="M92.8265 44.8156C87.2213 47.5576 81.6162 50.5053 76.0111 53.6587C50.5145 68.123 30.7598 84.027 20.0964 93.2814C15.6533 88.8256 11.6887 83.8213 8.40765 78.5429C14.0128 75.0468 20.5749 71.345 27.8206 67.6432C29.5294 66.752 31.3067 65.8608 33.0839 64.9697C39.0308 62.0905 45.3879 59.2114 52.1551 56.5379C52.7703 56.3322 53.3855 56.058 54.0007 55.8523C55.6412 55.2354 57.2817 54.6184 58.9222 54.0014C70.611 49.8198 81.958 46.735 92.8948 44.8156H92.8265Z" fill="#CCCCCC"/>
</g>
</g>
<path d="M195.838 51.7393C195.428 59.417 190.301 66.4093 182.44 68.8771C181.347 69.1513 180.185 69.357 179.023 69.4255C179.706 67.0262 180.8 63.5987 182.714 60.2397C185.174 55.7838 188.114 52.6304 191.532 50.8481C192.215 50.4368 192.967 50.1626 193.719 49.8884C194.402 49.6827 195.086 49.4771 195.838 49.34V51.7393Z" fill="#117C3E"/>
<path d="M195.633 48.0375C194.061 48.3118 192.625 48.8602 191.19 49.5457C190.506 49.8884 189.823 50.2997 189.207 50.7111C189.002 50.8482 188.797 50.9853 188.661 51.1224C185.926 53.1104 183.534 55.9895 181.483 59.6913C179.501 63.3931 178.271 67.0949 177.587 69.4942C173.212 69.4942 169.248 67.986 166.103 65.5182C168.222 63.1874 172.119 59.2114 177.245 55.3726C179.228 53.933 181.552 52.4248 184.081 50.9853C185.106 50.4369 186.132 49.8884 187.225 49.4086C189.754 48.2432 192.489 47.2149 195.359 46.5294C195.496 47.0093 195.565 47.4891 195.633 47.969V48.0375Z" fill="#3AA34B"/>
<path d="M197 50.7795C197 51.2594 197 51.6707 196.932 52.082C196.795 53.7272 196.453 55.3725 195.838 56.9492C193.719 62.8446 188.524 67.5061 182.372 68.8086C190.233 66.3407 195.36 59.3485 195.77 51.6707V49.2714C195.77 48.8601 195.701 48.4488 195.633 47.9689C195.565 47.489 195.496 47.0092 195.36 46.5293C195.291 46.118 195.154 45.7067 195.018 45.2954C194.813 44.6784 194.608 44.13 194.403 43.5131C192.489 39.0572 188.866 35.424 184.354 33.5731C176.015 30.1455 166.514 33.2303 161.524 40.771C166.65 31.448 178.681 28.4317 187.704 33.9159C191.942 36.5208 194.881 40.4968 196.248 45.0212C196.385 45.4325 196.453 45.8438 196.59 46.3237C196.727 46.8035 196.795 47.3519 196.863 47.8318C196.863 48.2431 196.932 48.6544 197 49.1343V50.7795Z" fill="#12833D"/>
<path d="M179.979 52.0135C178.817 52.7676 177.655 53.5902 176.493 54.4128C171.23 58.3202 167.197 62.3648 165.078 64.7641C163.984 63.8044 163.096 62.7761 162.275 61.6107C163.437 60.7195 164.805 59.6913 166.308 58.663C166.65 58.4573 167.06 58.1831 167.402 57.9089C168.632 57.0863 170 56.3322 171.367 55.5782C171.503 55.5782 171.64 55.4411 171.777 55.3725C172.119 55.1669 172.46 55.0298 172.802 54.8241C175.263 53.5902 177.655 52.6305 179.979 51.9449V52.0135Z" fill="#CCCCCC"/>
<path d="M184.833 48.9972C184.354 49.2714 183.876 49.4771 183.397 49.7513C183.124 49.8884 182.85 50.0255 182.577 50.2311C178.612 50.9166 174.716 52.2191 172.187 53.5216C171.845 53.6587 171.503 53.8644 171.093 54.07C170.957 54.07 170.82 54.2071 170.683 54.2757C170.41 54.4128 170.136 54.5499 169.931 54.687C169.795 54.07 169.658 53.3845 169.658 52.699C169.658 48.2431 173.281 44.6785 177.655 44.6785C182.03 44.6785 183.466 46.4608 184.764 48.9972H184.833Z" fill="#F0BE04"/>
<path d="M166.514 40.5037C165.693 42.0119 164.326 43.1087 163.096 44.2741C161.865 45.508 160.772 46.9476 160.703 48.6614C159.131 46.9476 158.584 44.4112 159.063 42.149C159.541 39.8868 160.909 37.8302 162.549 36.2535C162.891 35.9108 163.301 35.568 163.779 35.4309C164.258 35.2938 164.805 35.4309 165.078 35.8422C165.42 36.3907 165.078 37.0762 164.736 37.6246C163.916 38.9956 163.028 40.2981 162.139 41.6691C164.19 40.4352 165.762 38.4472 166.445 36.185C167.334 37.4189 167.197 39.2013 166.445 40.5723L166.514 40.5037Z" fill="#12833D"/>
<path d="M172.392 32.3392C170.752 31.9279 169.316 30.8997 167.812 30.077C166.309 29.2544 164.6 28.5689 162.959 28.9802C164.121 26.9922 166.445 25.8269 168.769 25.6898C171.093 25.5526 173.417 26.3067 175.4 27.4721C175.81 27.7463 176.22 28.0205 176.493 28.4318C176.767 28.8431 176.835 29.4601 176.493 29.8028C176.083 30.2827 175.263 30.1456 174.648 29.9399C173.144 29.4601 171.572 29.0488 170.068 28.5689C171.777 30.2141 174.169 31.1739 176.562 31.2424C175.673 32.4078 173.828 32.7506 172.392 32.4078V32.3392Z" fill="#12833D"/>
<path d="M181.552 33.0246C179.911 33.5045 178.544 34.6698 177.177 35.561C175.742 36.5207 174.101 37.2748 172.392 37.0006C173.691 38.92 176.083 39.9483 178.407 39.9483C180.731 39.9483 182.987 39.0571 184.901 37.7546C185.311 37.4804 185.721 37.2062 185.926 36.7264C186.132 36.3151 186.2 35.6981 185.79 35.3553C185.311 34.8755 184.559 35.0811 183.944 35.3553C182.44 35.9038 180.937 36.4522 179.433 37.0006C181.073 35.2868 183.329 34.1214 185.721 33.9158C184.764 32.8189 182.919 32.5447 181.483 33.0246H181.552Z" fill="#12833D"/>
<path d="M50.788 54.6939C49.2842 55.1737 49.2842 54.6939 49.0791 54.3511C48.8741 54.0084 48.8057 53.7342 49.0791 53.46L50.788 50.3066C55.3678 41.9433 80.1125 53.3229 87.0847 40.4352C82.0264 49.7582 69.1756 52.5688 64.5274 52.9116C59.8793 53.2543 54.6843 53.5285 50.788 54.7624V54.6939Z" fill="url(#paint0_linear_36_763)"/>
<path d="M58.102 55.9964V53.3229C55.026 53.3229 52.8387 53.6656 51.6083 54.2826C50.3779 54.8996 49.6943 55.9278 49.6943 57.5045C49.6943 59.0812 50.0361 59.3554 50.6513 59.9724C51.2665 60.5893 52.1551 60.8635 53.2488 60.8635C56.4615 60.8635 58.0337 59.2869 58.0337 56.0649L58.102 55.9964Z" fill="#CCCCCC"/>
<path d="M123.586 4.78147H123.381C122.561 5.32988 121.809 5.39843 120.921 5.39843C120.032 5.39843 119.348 5.39843 118.255 5.80974C116.272 6.4267 114.905 7.93483 114.29 8.826C114.153 9.03166 114.017 9.23731 113.948 9.37442C113.948 9.37442 113.88 9.44297 113.812 9.51152C114.222 8.48325 114.632 6.97511 114.29 5.32988C114.085 4.1645 113.675 3.41044 113.401 2.72492C112.991 1.9023 112.718 1.28534 112.855 0.257068C112.855 0.188517 112.855 0.119965 112.786 0.0514136C112.718 -0.0171379 112.581 -0.0171379 112.513 0.0514136C112.513 0.0514136 111.077 1.28534 111.146 3.61609C111.146 4.71291 111.556 5.53553 111.898 6.35815C112.308 7.18077 112.65 8.07194 112.718 9.23731V9.44297C112.718 10.2656 112.444 11.0196 111.898 11.6366C110.599 13.2133 109.437 14.9271 108.48 16.6409C108.685 15.4069 108.685 13.6932 107.865 11.9794C107.318 10.814 106.703 10.1285 106.224 9.51152C105.609 8.75745 105.13 8.20904 104.925 7.04366C104.925 6.97511 104.925 6.90656 104.789 6.83801C104.652 6.83801 104.584 6.83801 104.515 6.90656C104.515 6.97511 103.422 8.62035 104.037 11.0196C104.31 12.1165 104.925 12.8705 105.609 13.6932C106.224 14.4472 106.839 15.2013 107.181 16.2981C107.044 16.161 106.908 15.9554 106.771 15.8183C106.224 15.3384 105.541 14.9956 104.789 14.9956C104.037 14.9956 103.422 15.2013 103.011 15.6812C102.26 16.5038 102.26 17.7377 102.943 18.766C102.396 19.1087 102.054 19.6571 101.986 20.2741C101.986 21.4395 102.943 22.3992 104.31 22.4677C104.925 22.4677 105.472 22.3306 105.951 22.0564C105.199 24.1815 104.652 26.3752 104.379 28.5688C104.242 29.8028 104.105 30.8996 104.105 31.9279C103.968 31.6536 103.832 31.448 103.763 31.1738C103.285 30.0084 103.217 28.9116 103.217 27.9519C103.217 26.9921 103.148 25.9639 102.67 24.8671C101.576 22.6049 99.7304 22.0564 99.662 22.0564C99.5253 22.0564 99.457 22.0564 99.3886 22.1935V22.3992C100.004 23.3589 100.004 24.113 100.004 25.0727C100.004 26.0324 100.004 26.7865 100.346 28.0204C100.961 30.2141 102.601 31.7222 103.49 32.4077C103.9 32.6819 104.105 33.0932 104.105 33.5731C104.173 36.178 104.584 37.7547 104.584 37.8918L105.062 37.7547C105.062 37.7547 104.652 36.178 104.584 33.5731C104.584 32.7505 104.857 31.9964 105.472 31.448C106.292 30.6939 107.113 30.4197 107.933 30.077C108.753 29.7342 109.574 29.46 110.257 28.7745C110.257 28.7745 110.325 28.7745 110.394 28.6374C111.829 27.1292 111.761 25.5526 111.693 25.484C111.693 25.484 111.624 25.2784 111.556 25.2784H111.282C110.667 26.0324 110.052 26.2381 109.3 26.5123C108.685 26.7179 107.933 26.9921 106.976 27.6091C105.746 28.4317 104.994 29.6657 104.584 30.6254C104.584 29.9399 104.72 29.1858 104.789 28.4317C105.062 26.4437 105.609 24.113 106.566 21.508C106.634 21.7822 106.771 21.9879 106.908 22.2621C107.318 22.8105 107.933 23.2904 108.617 23.496C109.368 23.7017 110.12 23.6331 110.736 23.3589C111.009 23.2218 111.282 23.0162 111.487 22.8105C111.761 22.5363 111.898 22.2621 112.034 21.9193C112.239 21.3024 112.034 20.6169 111.693 19.9999C111.556 19.7942 111.419 19.6571 111.282 19.4515H111.898C112.581 19.4515 113.196 19.1087 113.607 18.6974C114.017 18.2861 114.222 17.7377 114.153 17.1893C114.153 16.6409 113.812 16.0925 113.333 15.7497C112.855 15.4069 112.239 15.2013 111.556 15.2698C110.189 15.3384 109.232 16.3667 109.232 17.532C108.753 17.6691 108.343 17.8748 108.001 18.149C108.958 16.2296 110.257 14.173 111.829 12.1165C112.308 11.4995 113.06 11.0882 113.88 11.0196C115.042 11.0196 115.931 11.2253 116.819 11.5681C117.708 11.8423 118.596 12.1165 119.622 12.0479C121.262 11.9108 122.288 11.0882 122.698 10.6083C122.903 10.4027 122.971 10.2656 122.971 10.2656V9.92283C122.971 9.92283 122.834 9.85428 122.766 9.92283C121.741 10.1285 121.126 9.92283 120.305 9.64862C119.622 9.37441 118.802 9.16876 117.639 9.03166C116.136 8.89456 114.769 9.37442 113.743 9.92283C113.88 9.78572 114.017 9.64862 114.153 9.44297C114.563 9.16876 114.974 8.89456 115.384 8.6889C116.477 8.20904 117.434 8.14049 118.323 8.14049C119.212 8.14049 120.169 8.07194 121.126 7.52353C121.741 7.24932 122.219 6.83801 122.561 6.49525C123.381 5.60408 123.655 4.71291 123.655 4.71291C123.655 4.57581 123.655 4.50726 123.518 4.43871V4.71291L123.586 4.78147Z" fill="#21543A"/>
<path d="M100.688 28.0205C100.414 26.8551 100.346 25.964 100.346 25.2099C100.346 24.4558 100.346 23.7018 100.004 22.8792C100.619 23.2219 101.508 23.9074 102.123 25.2099C102.601 26.1696 102.601 27.1293 102.67 28.0891C102.67 28.9117 102.67 29.8028 103.012 30.7626C101.713 28.706 101.371 26.2382 101.371 26.1696C101.371 28.4318 102.328 30.4198 103.148 31.7908C102.26 31.0368 101.166 29.8029 100.756 28.0891H100.688V28.0205Z" fill="white"/>
<path d="M107.25 28.3015C108.138 27.7531 108.822 27.4789 109.437 27.2732C110.052 27.0676 110.599 26.8619 111.146 26.3821C111.009 26.9305 110.736 27.8217 109.915 28.6443C109.3 29.2612 108.548 29.5354 107.728 29.8782C107.113 30.1524 106.429 30.3581 105.746 30.8379C107.044 29.2612 108.89 28.3015 108.958 28.3015C107.181 28.9185 105.814 30.221 104.994 31.2492C105.404 30.3581 106.088 29.1927 107.25 28.3701V28.3015Z" fill="white"/>
<path d="M104.31 22.1249C103.217 22.1249 102.396 21.3023 102.465 20.4111C102.465 19.9312 102.738 19.5199 103.217 19.2457C103.285 19.3143 103.422 19.4514 103.49 19.5199C104.31 20.274 105.404 20.5482 106.293 20.2054V20.6168C106.293 21.5079 105.336 22.1934 104.242 22.1249H104.31Z" fill="#CCCCCC"/>
<path d="M111.351 20.6238C111.693 21.1037 111.761 21.6521 111.624 22.132C111.488 22.6118 111.078 23.0231 110.599 23.2973C110.052 23.503 109.437 23.5715 108.822 23.2973C108.207 23.0231 107.66 22.7489 107.386 22.2691C107.045 21.7892 106.976 21.2408 107.113 20.7609C107.181 20.4867 107.318 20.2811 107.523 20.0754C108.07 19.527 109.027 19.2528 109.984 19.527C110.599 19.7327 111.146 20.0754 111.419 20.5553H111.351V20.6238Z" fill="#E12714"/>
<path d="M109.779 17.8816C109.779 17.4703 109.915 17.059 110.189 16.7162C110.531 16.3734 111.009 16.0992 111.624 16.0992C112.171 16.0992 112.65 16.1678 113.06 16.442C113.47 16.7162 113.675 17.1275 113.675 17.5388C113.743 18.43 112.923 19.2526 111.829 19.3212C110.736 19.3897 109.779 18.7728 109.71 17.8816H109.779Z" fill="#F7A826"/>
<path d="M109.369 18.2861C109.437 18.5603 109.574 18.8345 109.779 19.0402C109.095 18.9031 108.412 19.0402 107.796 19.2459C108.138 18.9031 108.685 18.4918 109.3 18.2861H109.369Z" fill="white"/>
<path d="M106.429 16.2982C107.386 17.1894 107.591 18.5604 106.908 19.383C106.156 20.2057 104.789 20.1371 103.832 19.2459C102.875 18.3548 102.67 16.9837 103.353 16.1611C104.037 15.3385 104.174 15.5442 104.789 15.6127C105.404 15.6127 105.951 15.8869 106.429 16.2982Z" fill="#3AA34B"/>
<path d="M105.677 11.1568C105.677 11.1568 107.044 13.2819 107.386 15.7498C106.976 14.8586 106.429 14.1731 105.882 13.5561C105.267 12.802 104.652 12.048 104.379 11.0197C103.969 9.58012 104.242 8.4833 104.515 7.86633C104.789 8.68895 105.267 9.23736 105.746 9.85433C106.224 10.4713 106.839 11.1568 107.318 12.2536C108.07 13.8303 108.07 15.4755 107.865 16.6409C107.591 15.0642 107.044 12.9391 105.609 11.2254L105.677 11.1568Z" fill="white"/>
<path d="M117.639 9.85425C118.733 9.9228 119.485 10.197 120.169 10.4712C120.852 10.6769 121.467 10.8825 122.219 10.8825C121.741 11.2938 120.921 11.8422 119.622 11.9793C118.665 12.0479 117.845 11.8422 117.024 11.568C116.341 11.3624 115.589 11.0882 114.7 11.0196C116.888 10.5398 119.075 11.0196 119.075 11.0196C117.093 10.3341 115.179 10.5398 113.743 10.8825C114.7 10.3341 116.067 9.7857 117.571 9.9228H117.639V9.85425Z" fill="white"/>
<path d="M113.333 9.30598C113.47 7.8664 113.402 5.8784 112.581 4.02751C112.581 4.02751 113.333 6.22116 113.06 8.41481C112.923 7.52364 112.581 6.83812 112.308 6.15261C111.966 5.32999 111.624 4.57593 111.556 3.6162C111.556 2.31373 111.966 1.42256 112.376 0.874146C112.376 1.62821 112.718 2.24518 112.991 2.93069C113.265 3.54765 113.607 4.30172 113.812 5.39854C114.085 6.90668 113.743 8.34626 113.333 9.30598Z" fill="white"/>
<path d="M120.989 7.45509C120.1 7.86639 119.28 7.93495 118.391 8.0035C117.64 8.0035 116.888 8.07205 116.067 8.34626C117.913 7.11233 120.1 6.76957 120.169 6.76957C118.118 6.83812 116.341 7.72929 115.11 8.48336C115.794 7.66074 116.888 6.70102 118.391 6.22116C119.485 5.94695 120.237 5.8784 120.989 5.8784C121.741 5.8784 122.356 5.8784 123.108 5.53564C122.835 6.08406 122.219 6.90667 121.057 7.52364H120.989V7.45509Z" fill="white"/>
<path d="M113.06 17.3262C113.06 17.3262 112.718 17.4633 112.718 17.7375C112.718 18.0117 113.128 18.0802 113.128 18.0802C113.128 18.0802 112.786 17.7375 113.06 17.3262Z" fill="#21543A"/>
<path d="M110.394 21.9261C110.326 22.2689 110.667 22.4745 110.667 22.4745C110.667 22.4745 110.394 21.9947 110.941 21.5834C110.941 21.5834 110.531 21.5834 110.394 21.9261Z" fill="#21543A"/>
<path d="M103.695 16.8534C103.695 16.8534 104.105 17.059 104.31 16.7848C104.584 16.5106 104.31 16.1678 104.31 16.1678C104.31 16.1678 104.31 16.7163 103.695 16.8534Z" fill="#21543A"/>
<path d="M103.012 20.6854C103.012 20.6854 103.353 20.6169 103.422 20.2741C103.49 19.9313 103.08 19.8628 103.08 19.8628C103.08 19.8628 103.353 20.2056 103.08 20.6169H103.012V20.6854Z" fill="#21543A"/>
<defs>
<linearGradient id="paint0_linear_36_763" x1="55.2926" y1="51.9176" x2="85.5888" y2="42.7115" gradientUnits="userSpaceOnUse">
<stop offset="0.2" stop-color="#21543A"/>
<stop offset="1" stop-color="#8EC040"/>
</linearGradient>
</defs>
</svg>
