<?xml version="1.0" encoding="UTF-8"?>
<svg id="Layer_1" xmlns="http://www.w3.org/2000/svg" version="1.1" xmlns:xlink="http://www.w3.org/1999/xlink" viewBox="0 0 294.8 113.4">
  <!-- Generator: Adobe Illustrator 30.3.0, SVG Export Plug-In . SVG Version: 2.1.3 Build 182)  -->
  <defs>
    <style>
      .st0 {
        fill: #12833d;
      }

      .st1 {
        fill: #8ec040;
      }

      .st2 {
        fill: #fff;
      }

      .st3 {
        fill: none;
      }

      .st4 {
        fill: #f7a826;
      }

      .st5 {
        fill: #21543a;
      }

      .st6 {
        fill: #f0be04;
      }

      .st7 {
        isolation: isolate;
      }

      .st8 {
        fill: #3aa34b;
      }

      .st9 {
        fill: #117c3e;
      }

      .st10 {
        fill: #48ae4d;
      }

      .st11 {
        fill: #e12714;
      }

      .st12 {
        opacity: .3;
      }

      .st13 {
        fill: url(#linear-gradient);
      }

      .st14 {
        clip-path: url(#clippath);
      }
    </style>
    <clipPath id="clippath">
      <path class="st3" d="M39.1,82.4c3.2,0,6.3-.6,9.4-1.9,1.3-.5,2.3-.7,3-.4.7.2,1.3.9,1.8,2l4,8.5c.4,1.1.5,2,.3,2.6-.2.6-.9,1.2-2,2-5.1,3.4-11.8,5.1-20,5.1s-18.1-2.8-23.8-8.5c-5.7-5.7-8.6-14.4-8.6-26.3s2.8-20.7,8.4-26.3c5.6-5.6,13.4-8.5,23.5-8.5s14.6,1.7,19.7,5c1.1.7,1.7,1.4,2,2,.2.6.2,1.5-.3,2.6l-3.9,8.5c-.4,1.1-1,1.7-1.8,2-.8.2-1.8,0-3-.4-2.8-1.1-5.8-1.7-9.1-1.7-5.2,0-8.9,1.3-11.1,3.8s-3.3,6.9-3.3,13.1,1.1,10.5,3.4,13.1c2.3,2.6,6,3.9,11.3,3.9v-.2h.1ZM107.4,64.9v31c0,2.1-1.1,3.2-3.2,3.2h-11c-1.8,0-2.9-.8-3.3-2.5l-.9-2.8c-3.3,4-8.6,6-15.8,6s-8.5-1.3-11.5-3.9c-3-2.6-4.5-6.5-4.5-11.6s.3-4.5,1-6.4c.6-1.8,1.6-3.4,3-4.6s2.8-2.2,4.5-3c1.7-.8,3.7-1.4,6.2-1.9,2.5-.4,5-.7,7.5-.9s5.4-.3,8.9-.3v-1.4c0-3.2-2.7-4.9-8.2-4.9s-8.1.8-12.8,2.5c-2,.8-3.4,0-4.1-2l-2.3-7c-.6-1.9,0-3.3,2-4.1,6.3-2.5,13.1-3.8,20.4-3.8s13.9,1.5,18,4.7c4.1,3.1,6.1,7.6,6.1,13.6h0ZM157.9,70.2v25.7c0,2.1-1.1,3.2-3.2,3.2h-12.9c-2.1,0-3.2-1.1-3.2-3.2v-26.1c0-2.5-.3-4.3-.9-5.4-.6-1.1-1.8-1.7-3.4-1.7s-3.3.7-4.3,2.1c-.9,1.4-1.4,3.2-1.4,5.5v25.7c0,2.2-1.1,3.2-3.2,3.2h-13.1c-2.2,0-3.2-1.1-3.2-3.2v-44.9c0-2.2,1.1-3.2,3.2-3.2h11.8c1.8,0,2.9.8,3.3,2.5l1.1,3.3c3.7-4.6,8.6-6.9,14.6-6.9s11.2,2.4,13.6,7.3c3.8-4.9,9.1-7.3,15.8-7.3s9.3,1.6,11.7,4.8,3.6,8,3.6,14.5v29.9c0,2.2-1.1,3.2-3.2,3.2h-13.1c-2.1,0-3.2-1.1-3.2-3.2v-26.1c0-4.8-1.5-7.1-4.6-7.1s-5.5,2.5-5.5,7.6l-.3-.2h0ZM207.1,50.3l.8,2.8c1.3-1.8,3.4-3.4,6.2-4.6s5.5-1.8,8.1-1.8c6.6,0,11.6,2.2,15,6.7s5.1,11.2,5.1,20.1-1.7,15.6-5.1,20.1c-3.4,4.5-8.4,6.7-15,6.7s-5.1-.5-7.8-1.5-4.6-2.4-5.8-4.2v11.8c0,2.2-1.1,3.2-3.2,3.2h-13.3c-2.1,0-3.2-1.1-3.2-3.2v-55.3c0-2.1,1.1-3.2,3.2-3.2h11.6c1.8,0,2.9.8,3.3,2.5h0ZM210.3,64.4c-1.1,1.8-1.7,4.9-1.7,9s.6,7.2,1.7,9c1.1,1.8,2.9,2.8,5.2,2.8s4.1-.9,5.2-2.7c1.1-1.8,1.7-4.8,1.7-9.1s-.6-7.3-1.7-9.1c-1.1-1.8-2.8-2.7-5.2-2.7s-4.1.9-5.2,2.8Z"/>
    </clipPath>
    <linearGradient id="linear-gradient" x1="84.1" y1="-627" x2="128.4" y2="-613.5" gradientTransform="translate(0 -552.1) scale(1 -1)" gradientUnits="userSpaceOnUse">
      <stop offset=".2" stop-color="#21543a"/>
      <stop offset="1" stop-color="#8ec040"/>
    </linearGradient>
  </defs>
  <g class="st7">
    <g id="Layer_2">
      <g id="Layer_2-2">
        <g>
          <path class="st1" d="M251.7,79.2c-1.8,1-3.4,2-5,3-1.3-1.2-3.2-2.5-5.8-3.7-1.6-.7-3.3-1.3-5.1-1.8v-.6c3.3,0,6.3.4,8.7.9,3,.6,5.5,1.4,7.3,2.2h0Z"/>
          <path class="st10" d="M245.1,83.3c-2,1.4-3.9,2.8-5.5,4-1.6-2.6-2.8-5.4-3.4-8.5,1.4.4,2.7.9,3.8,1.3,2.3,1,4,2.1,5.1,3.1h0Z"/>
          <g class="st7">
            <g class="st7">
              <g class="st7">
                <g class="st7">
                  <path class="st1" d="M78.1,44.5h-12.2c-1.3,0-2-.7-2-2V7.7c0-1.3.7-2,2-2h12.2c6.4,0,11.2,1.6,14.3,4.6,3.1,3.1,4.7,8,4.7,14.7s-1.6,11.6-4.7,14.7c-3.1,3.1-7.9,4.6-14.3,4.6ZM77.6,16.1h-1.7v18.2h1.7c2.7,0,4.6-.6,5.7-1.9,1.2-1.3,1.8-3.7,1.8-7.1s-.6-5.8-1.8-7.1c-1.2-1.3-3.1-1.9-5.7-1.9Z"/>
                  <path class="st1" d="M113.4,7.6v2.9c0,1.2-.6,1.9-1.9,1.9h-7.9c-1.2,0-1.9-.6-1.9-1.9v-2.9c0-1.2.6-1.9,1.9-1.9h7.9c1.2,0,1.9.6,1.9,1.9ZM113.3,16.8v25.8c0,1.2-.6,1.9-1.9,1.9h-7.7c-1.2,0-1.9-.6-1.9-1.9v-25.8c0-1.2.6-1.9,1.9-1.9h7.7c1.2,0,1.9.6,1.9,1.9Z"/>
                  <path class="st1" d="M146.5,24.8v17.8c0,1.2-.6,1.9-1.9,1.9h-6.3c-1,0-1.7-.5-1.9-1.4l-.5-1.6c-1.9,2.3-4.9,3.4-9.1,3.4s-4.9-.7-6.6-2.2c-1.7-1.5-2.6-3.7-2.6-6.7s.2-2.6.5-3.7c.4-1.1.9-1.9,1.7-2.6.8-.7,1.6-1.3,2.6-1.7.9-.5,2.1-.8,3.6-1.1,1.4-.3,2.9-.4,4.3-.5,1.4,0,3.1-.2,5.1-.2v-.8c0-1.9-1.6-2.8-4.7-2.8s-4.7.5-7.4,1.4c-1.2.4-2,0-2.4-1.1l-1.3-4c-.4-1.1,0-1.9,1.1-2.4,3.6-1.5,7.5-2.2,11.8-2.2s8,.9,10.4,2.7c2.4,1.8,3.5,4.4,3.5,7.8ZM135.5,33.9v-2.2c-2.6,0-4.4.3-5.5.8-1.1.5-1.6,1.4-1.6,2.7s.3,1.6.8,2.1c.5.5,1.3.7,2.2.7,2.7,0,4-1.3,4-4Z"/>
                  <path class="st1" d="M186.5,43.1l-.4-1.6c-.8,1.1-2,1.9-3.6,2.6s-3.2,1-4.7,1c-3.8,0-6.7-1.3-8.6-3.9-2-2.6-3-6.4-3-11.6s1-9,3-11.6c2-2.6,4.8-3.9,8.6-3.9s2.9.3,4.5.9c1.5.6,2.6,1.4,3.3,2.4V7.6c0-1.2.6-1.9,1.9-1.9h7.7c1.2,0,1.9.6,1.9,1.9v35c0,1.2-.6,1.9-1.9,1.9h-6.7c-1,0-1.7-.5-1.9-1.4ZM184.7,34.9c.7-1.1,1-2.8,1-5.2s-.3-4.1-1-5.2c-.7-1.1-1.7-1.6-3-1.6s-2.3.5-3,1.6c-.6,1-1,2.8-1,5.2s.3,4.2,1,5.2c.6,1,1.6,1.6,3,1.6s2.4-.5,3-1.6Z"/>
                  <path class="st1" d="M219.2,37.5c2.4,0,4.8-.5,7.2-1.6,1.2-.5,2,0,2.4,1.1l1.1,3.4c.3,1,0,1.8-1.1,2.4-3.1,1.6-6.6,2.4-10.6,2.4s-9.5-1.3-12.4-4c-2.9-2.6-4.3-6.5-4.3-11.5s1.4-8.7,4.1-11.4c2.7-2.7,6.4-4,11.1-4s8,1.3,10.6,3.9c2.5,2.6,3.8,6.2,3.8,10.6v2.6c0,1.2-.6,1.9-1.9,1.9h-16.5c.8,2.8,3,4.2,6.7,4.2ZM216.8,22c-1.4,0-2.5.4-3.3,1.3s-1.2,2.3-1.4,4.2h8.8v-.4c0-3.4-1.4-5.1-4.2-5.1Z"/>
                </g>
              </g>
            </g>
          </g>
          <path class="st5" d="M39.1,82.4c3.2,0,6.3-.6,9.4-1.9,1.3-.5,2.3-.7,3-.4.7.2,1.3.9,1.8,1.9l4,8.6c.4,1.1.5,2,.3,2.6s-.9,1.2-2,1.9c-5.1,3.4-11.8,5.1-20,5.1s-18.1-2.8-23.8-8.5c-5.7-5.7-8.6-14.4-8.6-26.3s2.8-20.7,8.4-26.3c5.6-5.6,13.4-8.5,23.5-8.5s14.6,1.7,19.7,5c1.1.7,1.7,1.3,2,2,.2.6.2,1.5-.3,2.6l-3.9,8.5c-.4,1.1-1,1.7-1.8,2-.8.2-1.8,0-3-.4-2.8-1.1-5.8-1.7-9.1-1.7-5.2,0-8.9,1.3-11.1,3.8s-3.3,6.9-3.3,13.1,1.1,10.5,3.4,13.1,6,3.8,11.3,3.8c0,0,0,0,.1,0Z"/>
          <path class="st5" d="M107.4,64.9v31c0,2.2-1.1,3.2-3.2,3.2h-11c-1.8,0-2.9-.8-3.3-2.5l-.9-2.8c-3.3,4-8.6,6-15.8,6s-8.5-1.3-11.5-3.9-4.5-6.5-4.5-11.6.3-4.5,1-6.4c.6-1.8,1.6-3.4,3-4.6s2.8-2.2,4.5-3c1.7-.8,3.7-1.4,6.2-1.8s5-.7,7.5-.9,5.4-.3,8.9-.3v-1.4c0-3.2-2.7-4.8-8.2-4.8s-8.1.8-12.8,2.5c-2,.8-3.4,0-4.1-2l-2.3-7c-.6-1.9,0-3.3,2-4.1,6.3-2.5,13.1-3.8,20.4-3.8s13.9,1.5,18,4.7c4.1,3.1,6.1,7.6,6.1,13.6h0Z"/>
          <path class="st5" d="M157.9,70.2v25.7c0,2.2-1.1,3.2-3.2,3.2h-12.9c-2.1,0-3.2-1.1-3.2-3.2v-26.1c0-2.5-.3-4.3-.9-5.4-.6-1.1-1.8-1.7-3.4-1.7s-3.3.7-4.3,2.1-1.4,3.2-1.4,5.5v25.7c0,2.2-1.1,3.2-3.2,3.2h-13.1c-2.2,0-3.2-1.1-3.2-3.2v-44.9c0-2.2,1.1-3.2,3.2-3.2h11.8c1.8,0,2.9.8,3.3,2.5l1.1,3.3c3.7-4.6,8.6-6.9,14.6-6.9s11.2,2.4,13.6,7.3c3.8-4.9,9.1-7.3,15.8-7.3s9.3,1.6,11.7,4.8,3.6,8,3.6,14.5v29.9c0,2.2-1.1,3.2-3.2,3.2h-13.1c-2.1,0-3.2-1.1-3.2-3.2v-26.1c0-4.8-1.5-7.1-4.6-7.1s-5.5,2.5-5.5,7.6h0l-.3-.2h0Z"/>
          <path class="st5" d="M207.1,50.3l.8,2.8c1.3-1.8,3.4-3.4,6.2-4.6,2.8-1.2,5.5-1.8,8.1-1.8,6.6,0,11.6,2.2,15,6.7s5.1,11.2,5.1,20.1-1.7,15.6-5.1,20.1-8.4,6.7-15,6.7-5.1-.5-7.8-1.5c-2.6-1-4.6-2.4-5.8-4.2v11.8c0,2.2-1.1,3.2-3.2,3.2h-13.3c-2.1,0-3.2-1.1-3.2-3.2v-55.3c0-2.2,1.1-3.2,3.2-3.2h11.6c1.8,0,2.9.8,3.3,2.5h0Z"/>
          <path class="st1" d="M210.3,64.4c-1.1,1.8-1.7,4.8-1.7,9s.6,7.2,1.7,9,2.9,2.8,5.2,2.8,4.1-.9,5.2-2.7c1.1-1.8,1.7-4.8,1.7-9.1s-.6-7.3-1.7-9.1c-1.1-1.8-2.8-2.7-5.2-2.7s-4.1.9-5.2,2.8Z"/>
          <g class="st12">
            <g class="st14">
              <g>
                <path class="st9" d="M244.8,72.6c-6.9,47.6-45.1,88.3-98.9,98.9h0c-7.6,1.2-15.3,1.7-23.2,1.5,5.8-14.6,15.4-35.3,29.6-55.2,18.8-26.3,40.2-44.2,64.1-53.4,5-1.9,10-3.5,15.2-4.7,4.7-1.1,9.6-1.8,14.5-2.3,0,2.3,0,4.5-.2,6.8-.2,2.8-.5,5.6-.9,8.3h-.2Z"/>
                <path class="st8" d="M245.6,49.4c-10.5.9-20.6,3.2-30.4,6.8-4.7,1.7-9.3,3.7-13.8,6-1.3.7-2.7,1.4-4,2.2-19.4,10.8-37.1,27.4-52.6,49.2s-25.6,44.1-31.3,59.1h-.2c-28.9-2.6-54.7-14.2-74.5-31.6,15.2-13.2,43.5-35.9,80.1-56.6,14.1-8,30.2-16,47.9-23.2,7.1-2.9,14.4-5.6,22-8.1,17.6-5.8,36.3-10.4,55.8-13,.5,3.1.8,6.2,1.1,9.3h-.1Z"/>
                <path class="st1" d="M69.8,76.6c-8.4,3.5-16.4,7.1-24,10.9-5.5-5.5-13.6-12-25.2-18.2-6.9-3.7-14.4-6.9-22.5-9.7,0-.9,0-1.8-.1-2.7,15.2,1.4,28.5,4.2,39.3,7.3,13.4,3.8,24.4,8.4,32.5,12.3h0Z"/>
                <path class="st10" d="M37.9,91.5c-9.8,5.1-18.8,10.2-26.6,15C5.1,94.8.9,82-1,68.7c6.4,2.4,11.9,4.8,16.6,7.3,10,5.2,17.2,10.8,22.3,15.5h0Z"/>
                <path class="st1" d="M139,64.5c-8.2,4-16.4,8.3-24.6,12.9-37.3,21.1-66.2,44.3-81.8,57.8-6.5-6.5-12.3-13.8-17.1-21.5,8.2-5.1,17.8-10.5,28.4-15.9,2.5-1.3,5.1-2.6,7.7-3.9,8.7-4.2,18-8.4,27.9-12.3.9-.3,1.8-.7,2.7-1,2.4-.9,4.8-1.8,7.2-2.7,17.1-6.1,33.7-10.6,49.7-13.4h0Z"/>
              </g>
            </g>
          </g>
          <path class="st9" d="M289.7,74.6c-.6,11.2-8.1,21.4-19.6,25h0c-1.6.4-3.3.7-5,.8,1-3.5,2.6-8.5,5.4-13.4,3.6-6.5,7.9-11.1,12.9-13.7,1-.6,2.1-1,3.2-1.4,1-.3,2-.6,3.1-.8v3.5h0Z"/>
          <path class="st8" d="M289.4,69.2c-2.3.4-4.4,1.2-6.5,2.2-1,.5-2,1.1-2.9,1.7-.3.2-.6.4-.8.6-4,2.9-7.5,7.1-10.5,12.5-2.9,5.4-4.7,10.8-5.7,14.3h0c-6.4,0-12.2-2.2-16.8-5.8,3.1-3.4,8.8-9.2,16.3-14.8,2.9-2.1,6.3-4.3,10-6.4,1.5-.8,3-1.6,4.6-2.3,3.7-1.7,7.7-3.2,11.9-4.2.2.7.3,1.4.4,2.1h0Z"/>
          <path class="st0" d="M291.4,73.2c0,.7,0,1.3-.1,1.9-.2,2.4-.7,4.8-1.6,7.1-3.1,8.6-10.7,15.4-19.7,17.3h0c11.5-3.6,19-13.8,19.6-25v-3.5c0-.6-.1-1.2-.2-1.9-.1-.7-.2-1.4-.4-2.1-.1-.6-.3-1.2-.5-1.8-.3-.9-.6-1.7-.9-2.6-2.8-6.5-8.1-11.8-14.7-14.5-12.2-5-26.1-.5-33.4,10.5,7.5-13.6,25.1-18,38.3-10,6.2,3.8,10.5,9.6,12.5,16.2.2.6.3,1.2.5,1.9.2.7.3,1.5.4,2.2,0,.6.1,1.2.2,1.9v2.4h0Z"/>
          <path class="st1" d="M266.5,75c-1.7,1.1-3.4,2.3-5.1,3.5-7.7,5.7-13.6,11.6-16.7,15.1-1.6-1.4-2.9-2.9-4.1-4.6,1.7-1.3,3.7-2.8,5.9-4.3.5-.3,1.1-.7,1.6-1.1,1.8-1.2,3.8-2.3,5.8-3.4.2,0,.4-.2.6-.3.5-.3,1-.5,1.5-.8,3.6-1.8,7.1-3.2,10.5-4.2h0Z"/>
          <path class="st6" d="M273.6,70.6c-.7.4-1.4.7-2.1,1.1-.4.2-.8.4-1.2.7-5.8,1-11.5,2.9-15.2,4.8-.5.2-1,.5-1.6.8-.2,0-.4.2-.6.3-.4.2-.8.4-1.1.6-.2-.9-.4-1.9-.4-2.9,0-6.5,5.3-11.7,11.7-11.7s8.5,2.6,10.4,6.3h.1Z"/>
          <path class="st0" d="M246.8,58.2c-1.2,2.2-3.2,3.8-5,5.5-1.8,1.8-3.4,3.9-3.5,6.4-2.3-2.5-3.1-6.2-2.4-9.5.7-3.3,2.7-6.3,5.1-8.6.5-.5,1.1-1,1.8-1.2s1.5,0,1.9.6c.5.8,0,1.8-.5,2.6-1.2,2-2.5,3.9-3.8,5.9,3-1.8,5.3-4.7,6.3-8,1.3,1.8,1.1,4.4,0,6.4h0Z"/>
          <path class="st0" d="M255.4,46.3c-2.4-.6-4.5-2.1-6.7-3.3s-4.7-2.2-7.1-1.6c1.7-2.9,5.1-4.6,8.5-4.8s6.8.9,9.7,2.6c.6.4,1.2.8,1.6,1.4.4.6.5,1.5,0,2-.6.7-1.8.5-2.7.2-2.2-.7-4.5-1.3-6.7-2,2.5,2.4,6,3.8,9.5,3.9-1.3,1.7-4,2.2-6.1,1.7h0Z"/>
          <path class="st0" d="M268.8,47.3c-2.4.7-4.4,2.4-6.4,3.7-2.1,1.4-4.5,2.5-7,2.1,1.9,2.8,5.4,4.3,8.8,4.3s6.7-1.3,9.5-3.2c.6-.4,1.2-.8,1.5-1.5.3-.6.4-1.5-.2-2-.7-.7-1.8-.4-2.7,0-2.2.8-4.4,1.6-6.6,2.4,2.4-2.5,5.7-4.2,9.2-4.5-1.4-1.6-4.1-2-6.2-1.3h.1Z"/>
          <path class="st13" d="M77.5,78.9c-2.2.7-2.2,0-2.5-.5s-.4-.9,0-1.3l2.5-4.6c6.7-12.2,42.9,4.4,53.1-14.4-7.4,13.6-26.2,17.7-33,18.2s-14.4.9-20.1,2.7h0Z"/>
          <path class="st1" d="M88.2,80.8v-3.9c-4.5,0-7.7.5-9.5,1.4s-2.8,2.4-2.8,4.7.5,2.7,1.4,3.6,2.2,1.3,3.8,1.3c4.7,0,7-2.3,7-7h0Z"/>
          <g>
            <path class="st5" d="M184,6.1h-.3c-1.2.8-2.3.9-3.6.9s-2.3,0-3.9.6c-2.9.9-4.9,3.1-5.8,4.4-.2.3-.4.6-.5.8,0,0-.1.1-.2.2.6-1.5,1.2-3.7.7-6.1-.3-1.7-.9-2.8-1.3-3.8-.6-1.2-1-2.1-.8-3.6,0-.1,0-.2-.1-.3s-.3-.1-.4,0c0,0-2.1,1.8-2,5.2,0,1.6.6,2.8,1.1,4,.6,1.2,1.1,2.5,1.2,4.2v.3c0,1.2-.4,2.3-1.2,3.2-1.9,2.3-3.6,4.8-5,7.3.3-1.8.3-4.3-.9-6.8-.8-1.7-1.7-2.7-2.4-3.6-.9-1.1-1.6-1.9-1.9-3.6,0-.1,0-.2-.2-.3-.2,0-.3,0-.4.1,0,.1-1.6,2.5-.7,6,.4,1.6,1.3,2.7,2.3,3.9.9,1.1,1.8,2.2,2.3,3.8-.2-.2-.4-.5-.6-.7-.8-.7-1.8-1.2-2.9-1.2s-2,.3-2.6,1c-1.1,1.2-1.1,3-.1,4.5-.8.5-1.3,1.3-1.4,2.2,0,1.7,1.4,3.1,3.4,3.2.9,0,1.7-.2,2.4-.6-1.1,3.1-1.9,6.3-2.3,9.5-.2,1.8-.4,3.4-.4,4.9-.2-.4-.4-.7-.5-1.1-.7-1.7-.8-3.3-.8-4.7s-.1-2.9-.8-4.5h0c-1.6-3.3-4.3-4.1-4.4-4.1-.2,0-.3,0-.4.2v.3c.9,1.4.9,2.5.9,3.9s0,2.5.5,4.3c.9,3.2,3.3,5.4,4.6,6.4h0c.6.4.9,1,.9,1.7.1,3.8.7,6.1.7,6.3l.7-.2s-.6-2.3-.7-6.1c0-1.2.4-2.3,1.3-3.1h0c1.2-1.1,2.4-1.5,3.6-2,1.2-.5,2.4-.9,3.4-1.9,0,0,.1,0,.2-.2,2.1-2.2,2-4.5,1.9-4.6,0,0-.1-.3-.2-.3h-.4c-.9,1.1-1.8,1.4-2.9,1.8-.9.3-2,.7-3.4,1.6-1.8,1.2-2.9,3-3.5,4.4,0-1,.2-2.1.3-3.2.4-2.9,1.2-6.3,2.6-10.1.1.4.3.7.5,1.1.6.8,1.5,1.5,2.5,1.8,1.1.3,2.2.2,3.1-.2.4-.2.8-.5,1.1-.8.4-.4.6-.8.8-1.3.3-.9,0-1.9-.5-2.8-.2-.3-.4-.5-.6-.8h.9c1,0,1.9-.5,2.5-1.1s.9-1.4.8-2.2c0-.8-.5-1.6-1.2-2.1s-1.6-.8-2.6-.7h0c-2,.1-3.4,1.6-3.4,3.3-.7.2-1.3.5-1.8.9,1.4-2.8,3.3-5.8,5.6-8.8.7-.9,1.8-1.5,3-1.6h0c1.7,0,3,.3,4.3.8,1.3.4,2.6.8,4.1.7,2.4-.2,3.9-1.4,4.5-2.1.3-.3.4-.5.4-.5v-.5s-.2-.1-.3,0c-1.5.3-2.4,0-3.6-.4-1-.4-2.2-.7-3.9-.9-2.2-.2-4.2.5-5.7,1.3.2-.2.4-.4.6-.7.6-.4,1.2-.8,1.8-1.1,1.6-.7,3-.8,4.3-.8s2.7-.1,4.1-.9c.9-.4,1.6-1,2.1-1.5,1.2-1.3,1.6-2.6,1.6-2.6,0-.2,0-.3-.2-.4h0v.4h0Z"/>
            <path class="st2" d="M150.5,40c-.4-1.7-.5-3-.5-4.1s0-2.2-.5-3.4c.9.5,2.2,1.5,3.1,3.4.7,1.4.7,2.8.8,4.2,0,1.2,0,2.5.5,3.9-1.9-3-2.4-6.6-2.4-6.7,0,3.3,1.4,6.2,2.6,8.2-1.3-1.1-2.9-2.9-3.5-5.4h-.1Z"/>
            <path class="st2" d="M160.1,40.4c1.3-.8,2.3-1.2,3.2-1.5s1.7-.6,2.5-1.3c-.2.8-.6,2.1-1.8,3.3-.9.9-2,1.3-3.2,1.8-.9.4-1.9.7-2.9,1.4,1.9-2.3,4.6-3.7,4.7-3.7-2.6.9-4.6,2.8-5.8,4.3.6-1.3,1.6-3,3.3-4.2h0Z"/>
            <path class="st1" d="M155.8,31.4c-1.6,0-2.8-1.2-2.7-2.5,0-.7.4-1.3,1.1-1.7.1.1.3.3.4.4,1.2,1.1,2.8,1.5,4.1,1v.6c0,1.3-1.4,2.3-3,2.2h0Z"/>
            <path class="st11" d="M166.1,29.2c.5.7.6,1.5.4,2.2s-.8,1.3-1.5,1.7c-.8.3-1.7.4-2.6,0s-1.7-.8-2.1-1.5c-.5-.7-.6-1.5-.4-2.2.1-.4.3-.7.6-1,.8-.8,2.2-1.2,3.6-.8.9.3,1.7.8,2.1,1.5h-.1Z"/>
            <path class="st2" d="M159.3,28.4h0Z"/>
            <path class="st4" d="M163.8,25.2c0-.6.2-1.2.6-1.7.5-.5,1.2-.9,2.1-.9h0c.8,0,1.5.1,2.1.5s.9,1,.9,1.6c.1,1.3-1.1,2.5-2.7,2.6-1.6.1-3-.8-3.1-2.1h0Z"/>
            <path class="st2" d="M163.2,25.8c.1.4.3.8.6,1.1-1-.2-2,0-2.9.3.5-.5,1.3-1.1,2.2-1.4h0Z"/>
            <path class="st8" d="M158.9,22.9c1.4,1.3,1.7,3.3.7,4.5-1.1,1.2-3.1,1.1-4.5-.2-1.4-1.3-1.7-3.3-.7-4.5s1.2-.9,2.1-.8c.9,0,1.7.4,2.4,1Z"/>
            <path class="st2" d="M157.8,15.4s2,3.1,2.5,6.7c-.6-1.3-1.4-2.3-2.2-3.2-.9-1.1-1.8-2.2-2.2-3.7-.6-2.1-.2-3.7.2-4.6.4,1.2,1.1,2,1.8,2.9s1.6,1.9,2.3,3.5c1.1,2.3,1.1,4.7.8,6.4-.4-2.3-1.2-5.4-3.3-7.9h0Z"/>
            <path class="st2" d="M175.3,13.5c1.6.1,2.7.5,3.7.9,1,.3,1.9.6,3,.6-.7.6-1.9,1.4-3.8,1.6-1.4.1-2.6-.2-3.8-.6-1-.3-2.1-.7-3.4-.8,3.2-.7,6.4,0,6.4,0-2.9-1-5.7-.7-7.8-.2,1.4-.8,3.4-1.6,5.6-1.4h.1Z"/>
            <path class="st2" d="M169,12.7c.2-2.1.1-5-1.1-7.7,0,0,1.1,3.2.7,6.4-.2-1.3-.7-2.3-1.1-3.3-.5-1.2-1-2.3-1.1-3.7,0-1.9.6-3.2,1.2-4,0,1.1.5,2,.9,3,.4.9.9,2,1.2,3.6.4,2.2-.1,4.3-.7,5.7h0Z"/>
            <path class="st2" d="M180.2,10c-1.3.6-2.5.7-3.8.8-1.1,0-2.2.1-3.4.5,2.7-1.8,5.9-2.3,6-2.3-3,.1-5.6,1.4-7.4,2.5,1-1.2,2.6-2.6,4.8-3.3,1.6-.4,2.7-.5,3.8-.5s2,0,3.1-.5c-.4.8-1.3,2-3,2.9h-.1Z"/>
            <path class="st5" d="M168.6,24.4s-.5.2-.5.6.6.5.6.5c0,0-.5-.5-.1-1.1Z"/>
            <path class="st5" d="M164.7,31.1c-.1.5.4.8.4.8,0,0-.4-.7.4-1.3,0,0-.6,0-.8.5h0Z"/>
            <path class="st5" d="M154.9,23.7s.6.3.9-.1c.4-.4,0-.9,0-.9,0,0,0,.8-.9,1Z"/>
            <path class="st5" d="M153.9,29.3s.5-.1.6-.6-.5-.6-.5-.6c0,0,.4.5,0,1.1h-.1Z"/>
          </g>
        </g>
      </g>
    </g>
  </g>
</svg>